<?xml version="1.0" encoding="UTF-8"?>
<svg xmlns="http://www.w3.org/2000/svg" viewBox="0 0 64 64">
  <path fill="#3d2315" d="M32 2C15.4 2 2 15.4 2 32s13.4 30 30 30 30-13.4 30-30S48.6 2 32 2zm0 56C17.7 58 6 46.3 6 32S17.7 6 32 6s26 11.7 26 26-11.7 26-26 26zm-3-18.2c0-3.3 1.5-5.5 3.2-7.7 1.7-2.2 3.6-4.4 3.6-7.9 0-2.4-1-4.6-2.8-6.2s-4.1-2.5-6.5-2.5c-2.5 0-4.8.9-6.5 2.5S17 22.7 17 25.1c0 3.5 1.9 5.7 3.6 7.9 1.7 2.2 3.2 4.4 3.2 7.7H29zm8 0c0-3.3 1.5-5.5 3.2-7.7 1.7-2.2 3.6-4.4 3.6-7.9 0-2.4-1-4.6-2.8-6.2s-4.1-2.5-6.5-2.5c-2.5 0-4.8.9-6.5 2.5s-2.8 3.8-2.8 6.2c0 3.5 1.9 5.7 3.6 7.9 1.7 2.2 3.2 4.4 3.2 7.7H37z"/>
</svg>
